HIERARCHY
ROOT joint_Root
{
	OFFSET 0.0 0.0 0.0
	CHANNELS 6 Xposition Yposition Zposition Zrotation Xrotation Yrotation 
	JOINT Hips
	{
		OFFSET -0.726466 93.3139 -2.00062
		CHANNELS 6 Xposition Yposition Zposition Zrotation Xrotation Yrotation 
		JOINT Spine
		{
			OFFSET 15.7357 0.0 0.0
			CHANNELS 6 Xposition Yposition Zposition Zrotation Xrotation Yrotation 
			JOINT Chest
			{
				OFFSET 8.98455 -0.406207 0.0
				CHANNELS 6 Xposition Yposition Zposition Zrotation Xrotation Yrotation 
				JOINT Neck
				{
					OFFSET 16.3773 0.0 0.0
					CHANNELS 6 Xposition Yposition Zposition Zrotation Xrotation Yrotation 
					JOINT Head
					{
						OFFSET 6.45672 0.0 0.0
						CHANNELS 6 Xposition Yposition Zposition Zrotation Xrotation Yrotation 
						End Site
						{
							OFFSET 0.0 0.0 0.0
						}
					}
				}
				JOINT Shoulder_L
				{
					OFFSET 12.9942 -0.242716 4.98039
					CHANNELS 6 Xposition Yposition Zposition Zrotation Xrotation Yrotation 
					JOINT UpperArm_L
					{
						OFFSET 5.34809 0.0 0.0
						CHANNELS 6 Xposition Yposition Zposition Zrotation Xrotation Yrotation 
						JOINT LowerArm_L
						{
							OFFSET 24.3286 1.87007e-05 0.0
							CHANNELS 6 Xposition Yposition Zposition Zrotation Xrotation Yrotation 
							JOINT Hand_L
							{
								OFFSET 22.2916 0.0 0.0
								CHANNELS 6 Xposition Yposition Zposition Zrotation Xrotation Yrotation 
								End Site
								{
									OFFSET 0.0 0.0 0.0
								}
							}
						}
					}
				}
				JOINT Shoulder_R
				{
					OFFSET 12.9945 -0.242716 -4.98039
					CHANNELS 6 Xposition Yposition Zposition Zrotation Xrotation Yrotation 
					JOINT UpperArm_R
					{
						OFFSET -5.34813 0.0 0.0
						CHANNELS 6 Xposition Yposition Zposition Zrotation Xrotation Yrotation 
						JOINT LowerArm_R
						{
							OFFSET -24.3289 0.000322201 0.0
							CHANNELS 6 Xposition Yposition Zposition Zrotation Xrotation Yrotation 
							JOINT Hand_R
							{
								OFFSET -22.2915 -0.000108084 0.0
								CHANNELS 6 Xposition Yposition Zposition Zrotation Xrotation Yrotation 
								End Site
								{
									OFFSET 0.0 0.0 0.0
								}
							}
						}
					}
				}
			}
		}
		JOINT UpperLeg_L
		{
			OFFSET -2.19248 -6.46944 0.0
			CHANNELS 6 Xposition Yposition Zposition Zrotation Xrotation Yrotation 
			JOINT LowerLeg_L
			{
				OFFSET 39.0811 0.0 -1.23785e-05
				CHANNELS 6 Xposition Yposition Zposition Zrotation Xrotation Yrotation 
				JOINT Foot_L
				{
					OFFSET 40.9854 0.0 -1.26872e-05
					CHANNELS 6 Xposition Yposition Zposition Zrotation Xrotation Yrotation 
					JOINT Toes_L
					{
						OFFSET 11.7543 0.0 0.0
						CHANNELS 6 Xposition Yposition Zposition Zrotation Xrotation Yrotation 
						End Site
						{
							OFFSET 0.0 0.0 0.0
						}
					}
				}
			}
		}
		JOINT UpperLeg_R
		{
			OFFSET -2.19251 6.46944 0.0
			CHANNELS 6 Xposition Yposition Zposition Zrotation Xrotation Yrotation 
			JOINT LowerLeg_R
			{
				OFFSET -39.0811 -0.00228153 -0.0401928
				CHANNELS 6 Xposition Yposition Zposition Zrotation Xrotation Yrotation 
				JOINT Foot_R
				{
					OFFSET -40.9854 0.0 0.0
					CHANNELS 6 Xposition Yposition Zposition Zrotation Xrotation Yrotation 
					JOINT Toes_R
					{
						OFFSET -11.7543 0.0 0.0
						CHANNELS 6 Xposition Yposition Zposition Zrotation Xrotation Yrotation 
						End Site
						{
							OFFSET 0.0 0.0 0.0
						}
					}
				}
			}
		}
	}
}
MOTION
Frames:	5
Frame Time:	0.0333333
0.000000 0.000000 0.000000 0.000000 0.000000 -0.000000 0.206546 92.893900 -422.834000 88.627500 -2.248750 -7.574500 15.735700 0.000005 -0.000001 111.704000 81.741900 -111.966000 8.984550 -0.406207 -0.000000 7.625650 6.084290 -0.929151 16.377300 -0.000001 -0.000001 -1.621220 -2.249900 1.231470 6.456720 -0.000001 -0.000000 -1.805330 -7.124200 1.280130 12.994200 -0.242716 4.980390 -85.994000 -11.119800 -70.042700 5.348090 -0.000007 -0.000001 -80.496800 34.698200 27.089700 24.328600 0.000019 0.000005 -5.010190 -0.698590 -82.083500 22.291600 -0.000001 0.000005 5.595090 5.641220 -14.228000 12.994500 -0.242716 -4.980390 90.734600 -2.541480 -73.872800 -5.348130 -0.000001 -0.000004 -58.831500 36.688700 -36.835900 -24.328900 0.000322 -0.000009 -5.293620 1.596350 -106.754000 -22.291500 -0.000108 -0.000004 21.549300 5.596390 -11.130400 -2.192480 -6.469440 -0.000000 177.325000 -0.541926 -31.418800 39.081100 -0.000007 -0.000012 -0.000977 0.001722 29.566200 40.985400 -0.000006 -0.000013 2.080020 0.127166 -69.379600 11.754300 -0.000000 0.000003 -0.007452 -0.083510 -19.976900 -2.192510 6.469440 -0.000001 179.049000 5.986930 -173.808000 -39.081100 -0.002282 -0.040193 0.031068 -0.040315 34.565500 -40.985400 0.000008 0.000006 -0.194573 4.098230 -31.716400 -11.754300 -0.000006 -0.000006 -0.028694 -0.211415 -25.231200
0.000000 0.000000 0.000000 0.000000 0.000000 -0.000000 0.101791 91.132600 -415.673000 87.769700 -1.600950 -7.001610 15.735700 0.000005 -0.000001 109.520000 81.952100 -109.677000 8.984550 -0.406207 -0.000000 7.436640 5.358400 -0.662673 16.377300 -0.000001 -0.000001 -1.866270 -2.063610 1.100690 6.456720 -0.000001 -0.000000 -2.268450 -6.828910 1.649030 12.994200 -0.242716 4.980390 -86.335300 -10.059600 -69.863100 5.348090 -0.000007 -0.000001 -79.041600 33.404100 22.244200 24.328600 0.000019 0.000005 -3.867200 -0.474740 -83.013500 22.291600 -0.000001 0.000005 5.172590 5.641690 -14.269000 12.994500 -0.242716 -4.980390 90.626900 -2.202850 -74.109700 -5.348130 -0.000001 -0.000004 -61.736900 40.289800 -29.753500 -24.328900 0.000322 -0.000009 -7.154100 1.243120 -99.820000 -22.291500 -0.000108 -0.000004 21.269800 5.585310 -10.498100 -2.192480 -6.469440 -0.000000 176.461000 -2.984220 -29.651900 39.081100 -0.000007 -0.000012 0.198037 -0.353434 29.263000 40.985400 -0.000006 -0.000013 5.540680 -2.179410 -68.944800 11.754300 -0.000000 0.000003 -0.007726 -0.085791 -20.070000 -2.192510 6.469440 -0.000001 -178.769000 2.379830 -176.877000 -39.081100 -0.002282 -0.040193 -0.030150 0.031081 47.066400 -40.985400 0.000008 0.000006 1.885320 -0.255126 -35.147100 -11.754300 -0.000006 -0.000006 -0.028176 -0.208980 -25.130300
0.000000 0.000000 0.000000 0.000000 0.000000 -0.000000 0.420168 88.460600 -409.029000 89.880400 -0.238287 -6.769510 15.735700 0.000005 -0.000001 101.492000 82.198900 -102.478000 8.984550 -0.406207 -0.000000 7.559270 3.098270 -2.174270 16.377300 -0.000001 -0.000001 -2.177870 -2.010500 1.184580 6.456720 -0.000001 -0.000000 -3.387870 -5.958860 1.893560 12.994200 -0.242716 4.980390 -87.120600 -7.999110 -70.128500 5.348090 -0.000007 -0.000001 -76.613500 31.475000 15.850300 24.328600 0.000019 0.000005 -3.068390 -0.341781 -83.651200 22.291600 -0.000001 0.000005 4.461750 5.649010 -14.922000 12.994500 -0.242716 -4.980390 90.209600 -0.732434 -74.022400 -5.348130 -0.000001 -0.000004 -64.059000 42.908400 -22.464400 -24.328900 0.000322 -0.000009 -8.029870 0.230791 -91.631800 -22.291500 -0.000108 -0.000004 19.881000 5.583430 -10.412100 -2.192480 -6.469440 -0.000000 173.845000 -3.252520 -32.438900 39.081100 -0.000007 -0.000012 -0.103445 0.121893 40.320100 40.985400 -0.000006 -0.000013 6.010460 -3.516050 -65.317800 11.754300 -0.000000 0.000003 -0.004344 -0.054975 -18.813200 -2.192510 6.469440 -0.000001 178.957000 2.846480 175.930000 -39.081100 -0.002282 -0.040193 -0.099616 0.049380 64.339900 -40.985400 0.000008 0.000006 3.977240 -4.636760 -37.151200 -11.754300 -0.000006 -0.000006 -0.028818 -0.211994 -25.255200
0.000000 0.000000 0.000000 0.000000 0.000000 -0.000000 0.617179 85.221200 -402.661000 90.975200 2.204380 -5.377840 15.735700 0.000005 -0.000001 91.142300 81.881300 -92.474700 8.984550 -0.406207 -0.000000 8.473200 0.313930 -2.685560 16.377300 -0.000001 -0.000001 -3.229820 -2.481830 1.283680 6.456720 -0.000001 -0.000000 -3.611840 -4.686740 2.093580 12.994200 -0.242716 4.980390 -88.177400 -5.162850 -70.528300 5.348090 -0.000007 -0.000001 -73.060800 30.675900 7.760930 24.328600 0.000019 0.000005 -3.191820 -0.271844 -85.133300 22.291600 -0.000001 0.000005 6.206500 5.659730 -16.002300 12.994500 -0.242716 -4.980390 89.755500 0.814347 -73.302400 -5.348130 -0.000001 -0.000004 -67.392900 43.688200 -13.842500 -24.328900 0.000322 -0.000009 -5.318820 -0.776582 -81.617300 -22.291500 -0.000108 -0.000004 17.729100 5.604920 -11.640500 -2.192480 -6.469440 -0.000000 173.386000 2.238680 -32.451600 39.081100 -0.000007 -0.000012 -0.490411 0.374786 52.613000 40.985400 -0.000006 -0.000013 4.403090 -6.886310 -75.583800 11.754300 -0.000000 0.000003 -0.000004 -0.000053 -16.579600 -2.192510 6.469440 -0.000001 177.950000 4.005100 167.624000 -39.081100 -0.002282 -0.040193 -0.187876 0.026217 82.168200 -40.985400 0.000008 0.000006 6.080110 -8.574470 -37.763000 -11.754300 -0.000006 -0.000006 -0.029332 -0.214384 -25.354300
0.000000 0.000000 0.000000 0.000000 0.000000 -0.000000 0.907633 83.013100 -396.749000 92.790500 4.275730 -3.473820 15.735700 0.000005 -0.000001 85.882100 80.766000 -87.704000 8.984550 -0.406207 -0.000000 10.637300 -1.362460 -3.515050 16.377300 -0.000001 -0.000001 -4.169210 -3.341470 0.900906 6.456720 -0.000001 -0.000000 -5.208110 -4.604970 2.459820 12.994200 -0.242716 4.980390 -89.225500 -2.295970 -71.358500 5.348090 -0.000007 -0.000001 -67.545900 31.875700 -6.162340 24.328600 0.000019 0.000005 -5.894840 -0.443396 -85.712300 22.291600 -0.000001 0.000005 7.630560 5.669230 -17.242900 12.994500 -0.242716 -4.980390 89.313400 2.186890 -72.567200 -5.348130 -0.000001 -0.000004 -71.844200 40.357800 -4.057610 -24.328900 0.000322 -0.000009 0.176274 0.072615 -69.683000 -22.291500 -0.000108 -0.000004 21.188300 5.628590 -13.226700 -2.192480 -6.469440 -0.000000 171.233000 0.949318 -28.235900 39.081100 -0.000007 -0.000012 -0.708743 0.442351 58.032100 40.985400 -0.000006 -0.000013 5.344060 -5.215250 -83.131600 11.754300 -0.000000 0.000003 -0.000014 -0.000183 -16.584700 -2.192510 6.469440 -0.000001 176.485000 3.610790 158.412000 -39.081100 -0.002282 -0.040193 -0.333180 -0.039971 96.759300 -40.985400 0.000008 0.000006 8.611150 -7.901330 -40.506800 -11.754300 -0.000006 -0.000006 -0.030035 -0.217622 -25.488600
